<?xml version="1.0" encoding="utf-8"?>
<!-- Generator: Adobe Illustrator 15.0.0, SVG Export Plug-In . SVG Version: 6.00 Build 0)  -->
<!DOCTYPE svg PUBLIC "-//W3C//DTD SVG 1.1//EN" "http://www.w3.org/Graphics/SVG/1.1/DTD/svg11.dtd">
<svg version="1.1" id="Layer_1" xmlns="http://www.w3.org/2000/svg" xmlns:xlink="http://www.w3.org/1999/xlink" x="0px" y="0px"
	 width="230px" height="361.792px" viewBox="0 0 230 361.792" enable-background="new 0 0 230 361.792" xml:space="preserve">
<path id="center" fill="none" stroke="#FFFFFF" stroke-miterlimit="10" d="M115,63.083"/>
<path id="mask" fill="#FFFFFF" d="M230.002,361.792c0,0-0.035-150.335-0.199-155.201c-0.699-20.715-6.093-48.893-18.662-61.724
	c-13.895-14.183-27.883-12.222-44.139-22.784c-11-7.146-14.926-21.26-14-32.5c1.413-17.176,11.379-34.216,3-61
	C149.714,8.485,135.5-0.332,115.001-0.332S80.288,8.485,74,28.583c-8.379,26.784,1.587,43.824,3,61c0.925,11.24-3,25.354-14,32.5
	c-16.256,10.562-30.245,8.603-44.138,22.784C6.292,157.698,0.898,185.875,0.2,206.59C0.036,211.457,0,361.792,0,361.792H230.002z"/>
</svg>
